<svg width="149" height="36" viewBox="0 0 149 36" fill="none" xmlns="http://www.w3.org/2000/svg">
<path d="M30.8703 35.1099C29.7602 35.11 28.6845 34.7296 27.8264 34.0336C26.9683 33.3375 26.381 32.3689 26.1644 31.2927C25.9479 30.2165 26.1156 29.0994 26.639 28.1318C27.1623 27.1641 28.0089 26.4058 29.0345 25.9861C30.0601 25.5663 31.2013 25.5111 32.2634 25.8299C33.3256 26.1486 34.2431 26.8215 34.8596 27.734C35.476 28.6465 35.7533 29.7421 35.6441 30.834C35.535 31.9259 35.0461 32.9467 34.2609 33.7222C33.816 34.1628 33.2875 34.5122 32.7056 34.7504C32.1237 34.9885 31.5 35.1107 30.8703 35.1099Z" fill="#F5F5F5"/>
<path d="M4.79801 9.81771C3.68797 9.81781 2.61224 9.43741 1.75414 8.74135C0.896051 8.04529 0.308692 7.07663 0.0921647 6.00046C-0.124363 4.92429 0.0433434 3.8072 0.566697 2.83956C1.09005 1.87191 1.93667 1.1136 2.96227 0.693854C3.98788 0.274104 5.129 0.218882 6.19117 0.537614C7.25335 0.856345 8.17084 1.5293 8.7873 2.44179C9.40376 3.35428 9.68104 4.44985 9.57187 5.54178C9.46271 6.63371 8.97387 7.65444 8.18865 8.43001C7.74457 8.87168 7.21617 9.22178 6.63412 9.45999C6.05208 9.69821 5.42797 9.8198 4.79801 9.81771Z" fill="#F5F5F5"/>
<path d="M30.6537 9.67891C29.5437 9.67762 28.4686 9.29592 27.6114 8.59886C26.7542 7.90181 26.1681 6.93254 25.9529 5.85619C25.7377 4.77984 25.9066 3.66301 26.4311 2.69602C26.9555 1.72903 27.8029 0.97171 28.8289 0.55309C29.8549 0.134469 30.996 0.0804551 32.0578 0.400256C33.1195 0.720056 34.0363 1.39388 34.6518 2.30692C35.2673 3.21995 35.5434 4.3157 35.4332 5.40745C35.323 6.49921 34.8333 7.51941 34.0474 8.29423C33.6024 8.73531 33.0733 9.0848 32.4908 9.32247C31.9083 9.56015 31.2839 9.6813 30.6537 9.67891Z" fill="#F5F5F5"/>
<path d="M4.92322 35.1099C3.97397 35.1104 3.04591 34.8326 2.25647 34.3115C1.46704 33.7905 0.851721 33.0496 0.48839 32.1828C0.125058 31.3159 0.030044 30.362 0.215375 29.4417C0.400707 28.5215 0.858051 27.6763 1.52953 27.013C1.73615 26.8098 1.96316 26.6278 2.20705 26.47C2.28255 26.4165 2.36101 26.3671 2.44204 26.3222C2.61905 26.2196 2.79606 26.1291 2.96086 26.0537C3.05242 26.0145 3.14398 25.9723 3.24164 25.9361C3.42993 25.8648 3.62258 25.8054 3.81844 25.7581L3.94051 25.7249L4.01681 25.7038L5.08497 25.6344C5.21925 25.6344 5.3627 25.6555 5.51834 25.6766H5.57938H5.71366H5.75639H5.80521H5.84794H6.08294C7.9603 25.6504 9.7504 24.8888 11.0602 23.559C12.37 22.2293 13.0923 20.4401 13.0687 18.5843V18.53V18.4757C13.0657 18.4245 13.0657 18.3731 13.0687 18.3219C13.0687 18.2615 13.0687 18.2012 13.0504 18.1409V18.0323C13.0504 17.9418 13.0321 17.8543 13.026 17.7638L13.1053 16.7019C13.1121 16.6763 13.1202 16.6511 13.1297 16.6265L13.148 16.5601C13.1933 16.355 13.2534 16.1533 13.3281 15.9568C13.3611 15.863 13.3998 15.7713 13.4441 15.6822C13.5269 15.5014 13.6196 15.3252 13.7218 15.1543C13.7676 15.0819 13.8134 15.0065 13.8652 14.9311C14.0277 14.6903 14.2127 14.465 14.4176 14.2583C14.8596 13.8015 15.3894 13.4365 15.976 13.1848C16.5626 12.9331 17.1941 12.7999 17.8336 12.7928C18.473 12.7857 19.1074 12.905 19.6996 13.1436C20.2918 13.3822 20.8297 13.7354 21.2819 14.1823C21.7341 14.6293 22.0913 15.1611 22.3327 15.7464C22.5741 16.3317 22.6948 16.9589 22.6877 17.5909C22.6805 18.223 22.5457 18.8473 22.291 19.4271C22.0364 20.007 21.6672 20.5307 21.205 20.9675C20.9968 21.169 20.77 21.3508 20.5275 21.5105C20.4481 21.5648 20.3718 21.6101 20.2955 21.6523C20.1281 21.7528 19.9549 21.8435 19.7767 21.9238C19.6821 21.9661 19.5875 22.0083 19.499 22.0415C19.3083 22.11 19.1136 22.1674 18.9161 22.2134L18.8001 22.2436L18.7238 22.2647L17.6435 22.3401C17.5096 22.3338 17.3762 22.3207 17.2437 22.3009H17.1491H17.0148H16.9415H16.8866H16.6089C15.6775 22.3123 14.7575 22.5053 13.9017 22.8687C13.0459 23.2322 12.271 23.759 11.6215 24.4189C10.972 25.0789 10.4606 25.859 10.1166 26.7147C9.77268 27.5703 9.60289 28.4847 9.61702 29.4053V29.4566V29.5109C9.62512 29.5618 9.63022 29.6132 9.63228 29.6647C9.63228 29.7251 9.63228 29.7854 9.65059 29.8457C9.65359 29.9013 9.6597 29.9567 9.6689 30.0117C9.6689 30.0841 9.6689 30.1565 9.6689 30.2289V30.253L9.5926 31.2696C9.5926 31.2907 9.55293 31.4084 9.54377 31.4446C9.4977 31.6443 9.43858 31.8408 9.36676 32.0329C9.33468 32.1236 9.29697 32.2122 9.25384 32.2983C9.16839 32.4793 9.07988 32.6513 8.97612 32.8293C8.93034 32.8987 8.87846 32.9831 8.82353 33.0646C8.66099 33.2999 8.47822 33.521 8.27724 33.7252C7.83285 34.1665 7.3044 34.5163 6.72242 34.7545C6.14045 34.9927 5.51649 35.1145 4.8866 35.1129L4.92322 35.1099Z" fill="url(#paint0_linear_2_4581)"/>
<path d="M17.8848 35.1099C16.8567 35.1207 15.8524 34.8033 15.0212 34.205C14.19 33.6068 13.5761 32.7595 13.2708 31.7889C12.9654 30.8184 12.9849 29.7764 13.3262 28.8177C13.6676 27.859 14.3126 27.0346 15.1656 26.467C15.2388 26.4188 15.3151 26.3735 15.3945 26.3283C15.5632 26.2274 15.7375 26.1358 15.9164 26.0537L16.1941 25.9361C16.3837 25.8688 16.5773 25.8134 16.7739 25.7702L16.9632 25.7159L18.0496 25.6374C18.1778 25.6374 18.3151 25.6616 18.4586 25.6797H18.541H18.6814H18.7363H18.7699H19.0537C20.9294 25.6526 22.7177 24.8909 24.0257 23.5617C25.3338 22.2325 26.0547 20.4445 26.0303 18.5904V18.3702L26.012 18.346C26.0107 18.338 26.0107 18.3299 26.012 18.3219V18.165L25.9937 18.0142C25.9937 17.9297 25.9723 17.8483 25.9692 17.7638L26.0425 16.7381C26.0425 16.711 26.0852 16.5842 26.0944 16.545C26.1414 16.3476 26.2006 16.1532 26.2714 15.9628C26.3061 15.8693 26.3458 15.7776 26.3904 15.6883C26.4725 15.5106 26.5641 15.3374 26.6651 15.1694L26.6864 15.1332C26.7231 15.0729 26.7597 15.0095 26.8024 14.9492C26.967 14.7082 27.1529 14.4821 27.3579 14.2734C28.2586 13.3839 29.4798 12.8842 30.7531 12.8842C32.0264 12.8842 33.2476 13.3839 34.1483 14.2734C35.0453 15.1654 35.5487 16.3719 35.5487 17.6295C35.5487 18.8872 35.0453 20.0937 34.1483 20.9856C33.9375 21.1854 33.7098 21.3671 33.4677 21.5287L33.309 21.6252L33.2236 21.6795C33.0609 21.7755 32.8928 21.8621 32.72 21.9389C32.6224 21.9812 32.5338 22.0234 32.4362 22.0596C32.2445 22.1276 32.0488 22.184 31.8502 22.2285L31.7282 22.2617L31.6519 22.2828L30.5867 22.3552C30.4311 22.3552 30.2602 22.3281 30.0984 22.307C30.0517 22.3046 30.0048 22.3046 29.9581 22.307H29.9092H29.8177H29.5796C28.6503 22.3196 27.7327 22.513 26.879 22.8763C26.0254 23.2396 25.2526 23.7656 24.6047 24.4242C23.9568 25.0829 23.4465 25.8613 23.1031 26.7149C22.7596 27.5685 22.5897 28.4807 22.603 29.3993V29.4536V29.5049C22.6111 29.5589 22.6162 29.6132 22.6183 29.6678C22.6183 29.7221 22.6183 29.7764 22.6335 29.8307C22.6488 29.885 22.6335 29.9332 22.6488 29.9875C22.6641 30.0418 22.6671 30.1504 22.6702 30.2289L22.5908 31.2727L22.545 31.4356C22.4989 31.6402 22.4398 31.8417 22.368 32.0389C22.3375 32.1234 22.2978 32.2079 22.2612 32.2923L22.246 32.3225C22.1661 32.4943 22.0764 32.6615 21.9774 32.8233C21.9286 32.9037 21.8797 32.9821 21.8309 33.0586C21.6664 33.2987 21.4805 33.5238 21.2755 33.7313C20.8307 34.1715 20.302 34.52 19.72 34.7566C19.1379 34.9933 18.5142 35.1134 17.8848 35.1099Z" fill="url(#paint1_linear_2_4581)"/>
<path d="M4.92628 22.3039C3.97714 22.305 3.04899 22.0278 2.25928 21.5073C1.46956 20.9869 0.853763 20.2466 0.4898 19.3801C0.125836 18.5136 0.0300621 17.5599 0.214597 16.6396C0.399131 15.7193 0.855684 14.8738 1.52648 14.21C1.73532 14.0071 1.9632 13.8243 2.20705 13.664L2.4451 13.5162C2.6099 13.4196 2.78081 13.3321 2.96087 13.2477C3.05242 13.2054 3.14398 13.1662 3.24164 13.13C3.43019 13.0628 3.62284 13.0074 3.81844 12.9641L3.93747 12.9309L4.00461 12.9098L5.09108 12.8344C5.23147 12.8344 5.39627 12.8585 5.54581 12.8796H5.57938H5.71977H5.7686H5.81437H5.8571H6.0982C7.02723 12.8667 7.94458 12.6729 8.79785 12.3094C9.65112 11.946 10.4236 11.4199 11.0712 10.7613C11.7188 10.1027 12.2287 9.32447 12.572 8.47102C12.9153 7.61758 13.0851 6.70565 13.0718 5.78732V5.73604V5.68475C13.0611 5.62698 13.055 5.56849 13.0534 5.50979V5.36498L13.0351 5.21716C13.0225 5.13015 13.0143 5.04255 13.0107 4.95471L13.084 3.95919V3.93506V3.91394L13.1297 3.76008C13.1757 3.55545 13.2348 3.35393 13.3067 3.15674C13.3403 3.06624 13.383 2.97574 13.4258 2.88223C13.5071 2.70418 13.5989 2.53094 13.7004 2.36335V2.33619C13.7432 2.26982 13.7828 2.20044 13.8317 2.13106C13.9919 1.89311 14.1749 1.67087 14.378 1.46738C14.8197 1.01033 15.3493 0.645103 15.9358 0.393173C16.5223 0.141243 17.1538 0.00768314 17.7932 0.000321832C18.4327 -0.00703947 19.0671 0.111949 19.6594 0.350309C20.2517 0.588668 20.7898 0.941592 21.2422 1.38836C21.6945 1.83512 22.0521 2.36672 22.2937 2.95195C22.5354 3.53717 22.6564 4.16423 22.6495 4.7963C22.6426 5.42837 22.508 6.05271 22.2537 6.63266C21.9994 7.21262 21.6304 7.7365 21.1684 8.17355C20.9608 8.37576 20.7339 8.55762 20.4909 8.71656C20.4176 8.76785 20.3535 8.80404 20.2895 8.84326L20.2528 8.86438C20.0758 8.96695 19.9049 9.05746 19.7401 9.13287C19.6425 9.17511 19.5539 9.21734 19.4593 9.25052C19.2678 9.31967 19.0721 9.3771 18.8734 9.42248C18.8311 9.43134 18.7893 9.44241 18.7483 9.45566L18.672 9.47677L17.6068 9.54917C17.4726 9.54917 17.3291 9.52504 17.1796 9.50694H17.1124H16.9751H16.9202H16.8866H16.5997C15.6699 9.51875 14.7516 9.71163 13.8973 10.0746C13.0429 10.4375 12.2694 10.9634 11.6208 11.6221C10.9723 12.2808 10.4615 13.0595 10.1177 13.9135C9.77383 14.7675 9.60371 15.6802 9.61702 16.5993V16.6505V16.7018C9.62763 16.7555 9.63375 16.81 9.63533 16.8647C9.63533 16.919 9.63533 16.9763 9.63533 17.0306C9.63533 17.0849 9.63533 17.1302 9.65364 17.1875C9.66429 17.2655 9.6704 17.3441 9.67195 17.4228L9.61702 18.4576C9.61702 18.4847 9.61702 18.5119 9.59566 18.539L9.56819 18.6325C9.52263 18.8369 9.46454 19.0384 9.39423 19.2359C9.36066 19.3264 9.31488 19.4169 9.27216 19.5134C9.19269 19.6888 9.10407 19.86 9.00664 20.0262C8.95781 20.1077 8.90899 20.1861 8.86016 20.2585C8.69928 20.4996 8.51421 20.7239 8.30777 20.9282C7.86404 21.3696 7.33614 21.7194 6.75465 21.9576C6.17315 22.1959 5.54962 22.3176 4.92017 22.3159L4.92628 22.3039Z" fill="url(#paint2_linear_2_4581)"/>
<path d="M50.478 28V12.151H42.54V8.56H61.98V12.151H54.069V28H50.478ZM67.7903 28C67.1063 28 66.4853 27.829 65.9273 27.487C65.3693 27.145 64.9193 26.695 64.5773 26.137C64.2353 25.579 64.0643 24.958 64.0643 24.274V16.066C64.0643 15.382 64.2353 14.761 64.5773 14.203C64.9193 13.645 65.3693 13.195 65.9273 12.853C66.4853 12.511 67.1063 12.34 67.7903 12.34H76.2413C76.9253 12.34 77.5463 12.511 78.1043 12.853C78.6803 13.195 79.1303 13.645 79.4543 14.203C79.7963 14.761 79.9673 15.382 79.9673 16.066V21.952H67.6013V24.139C67.6013 24.229 67.6283 24.31 67.6823 24.382C67.7543 24.436 67.8353 24.463 67.9253 24.463H79.9673V28H67.7903ZM67.6013 18.766H76.4303V16.201C76.4303 16.111 76.3943 16.039 76.3223 15.985C76.2683 15.913 76.1963 15.877 76.1063 15.877H67.9253C67.8353 15.877 67.7543 15.913 67.6823 15.985C67.6283 16.039 67.6013 16.111 67.6013 16.201V18.766ZM86.0518 28C85.3678 28 84.7468 27.829 84.1888 27.487C83.6308 27.145 83.1808 26.695 82.8388 26.137C82.4968 25.579 82.3258 24.958 82.3258 24.274V16.066C82.3258 15.382 82.4968 14.761 82.8388 14.203C83.1808 13.645 83.6308 13.195 84.1888 12.853C84.7468 12.511 85.3678 12.34 86.0518 12.34H98.2018V15.877H86.1868C86.0968 15.877 86.0158 15.913 85.9438 15.985C85.8898 16.039 85.8628 16.111 85.8628 16.201V24.139C85.8628 24.229 85.8898 24.31 85.9438 24.382C86.0158 24.436 86.0968 24.463 86.1868 24.463H98.2288V28H86.0518ZM100.721 28V7.21H104.258V12.34H112.898C113.582 12.34 114.203 12.511 114.761 12.853C115.319 13.195 115.769 13.645 116.111 14.203C116.453 14.761 116.624 15.382 116.624 16.066V28H113.087V16.201C113.087 16.111 113.051 16.039 112.979 15.985C112.925 15.913 112.853 15.877 112.763 15.877H104.582C104.492 15.877 104.411 15.913 104.339 15.985C104.285 16.039 104.258 16.111 104.258 16.201V28H100.721ZM125.219 28V12.34H128.756V28H125.219ZM125.219 10.774V7.21H128.756V10.774H125.219ZM134.841 28C134.157 28 133.527 27.829 132.951 27.487C132.393 27.145 131.943 26.695 131.601 26.137C131.277 25.579 131.115 24.958 131.115 24.274V18.388H143.481V16.201C143.481 16.111 143.445 16.039 143.373 15.985C143.319 15.913 143.247 15.877 143.157 15.877H131.115V12.34H143.292C143.976 12.34 144.597 12.511 145.155 12.853C145.731 13.195 146.181 13.645 146.505 14.203C146.847 14.761 147.018 15.382 147.018 16.066V28H134.841ZM134.976 24.463H143.481V21.574H134.652V24.139C134.652 24.229 134.679 24.31 134.733 24.382C134.805 24.436 134.886 24.463 134.976 24.463Z" fill="#F5F5F5"/>
<path d="M118.956 28V24.463H122.493V28H118.956Z" fill="#01E5BD"/>
<defs>
<linearGradient id="paint0_linear_2_4581" x1="11.4055" y1="12.7925" x2="11.4055" y2="35.1129" gradientUnits="userSpaceOnUse">
<stop stop-color="#01E5BD"/>
<stop offset="0.997917" stop-color="#204376"/>
</linearGradient>
<linearGradient id="paint1_linear_2_4581" x1="24.302" y1="12.8842" x2="24.302" y2="35.1102" gradientUnits="userSpaceOnUse">
<stop stop-color="#01E5BD"/>
<stop offset="0.997917" stop-color="#204376"/>
</linearGradient>
<linearGradient id="paint2_linear_2_4581" x1="11.3864" y1="0" x2="11.3864" y2="22.316" gradientUnits="userSpaceOnUse">
<stop stop-color="#01E5BD"/>
<stop offset="0.997917" stop-color="#204376"/>
</linearGradient>
</defs>
</svg>
